<?xml version="1.0" encoding="UTF-8"?>
<svg version="1.1" viewBox="0 0 881.93 229.55" xmlns="http://www.w3.org/2000/svg">
<g transform="matrix(.18536 0 0 .18536 -15.448 -60.797)">
<g transform="translate(-1345.5)">
<g class="v8oWR2lt3" transform="matrix(12.384,0,0,12.384,1428.8,328)" fill="#168349" light-content="false" non-strokable="false">
<rect width="100" height="100" rx="10"/>
</g>
<g class="2sCq_X6iXJ" transform="matrix(8.6937 0 0 8.6937 1613.3 512.52)" fill="#fff" light-content="true" non-strokable="false">
<path d="m72.219 50.465-5.69 3.286v-6.698l-6.116-3.531 6.116-3.531v-19.086l-16.529-9.543-16.527 9.543v19.086l6.115 3.531-6.115 3.531v6.698l-5.69-3.286-16.53 9.542v19.086l16.53 9.544 16.528-9.544v-6.697l5.689 3.287 5.689-3.286v6.697l16.529 9.544 16.527-9.544v-19.086zm13.385 25.003-11.815-6.822v-13.646l11.815 6.821zm-22.217-39.104-11.815-6.822v-13.646l11.815 6.823zm-14.957-20.468v13.646l-11.816 6.822v-13.645zm-10.246 23.188 11.816-6.823 11.817 6.823-4.547 2.625-7.27-4.198-7.27 4.197zm15.946 4.438-4.13 2.385-4.129-2.384 4.129-2.385zm-4.13 6.012 7.271-4.198 4.547 2.625-11.818 6.822-11.816-6.823 4.546-2.625zm-23.788 5.466v13.646l-11.818 6.822v-13.647zm-10.245 23.188 11.816-6.821 11.814 6.821-11.814 6.822zm25.203-2.72-11.816-6.822v-13.646l4.119 2.379v8.76l7.697 4.444zm0-8.513-4.556-2.631v-5.134l4.556 2.631zm-4.556-11.391v-4.884l11.816 6.824v13.644l-4.119-2.38v-8.761zm14.957 15.584v-13.643l11.815-6.824v4.884l-7.697 4.443v8.761zm11.816-11.958v5.134l-4.556 2.631v-5.134zm3.141 6.949v-8.76l4.12-2.379v13.646l-11.817 6.822v-4.885zm-6.125 12.049 11.815-6.821 11.815 6.821-11.814 6.822z"/>
</g>
</g>
<g transform="translate(1073.4 -1069.7)">
<g class="text" transform="matrix(8.4725 0 0 8.4725 2064.8 2064.9)" fill="#383838" light-content="false">
<path d="m-192.09-32.58v32.58h11.88v-32.58h12.84v-9.42h-37.62v9.42zm75.12-9.42h-11.88v15.78h-16.2v-15.78h-11.88v42h11.88v-16.38h16.2v16.38h11.88zm42.54 33.84 3.3 8.16h12.36l-18.6-42h-11.7l-18.54 42h12.12l3.3-8.16zm-3.48-8.76h-10.8l5.4-13.44zm28.5-25.08v42h11.88v-42zm35.43 40.05c3.5 1.86 7.45 2.79 11.85 2.79 3.84 0 7.3-0.68 10.38-2.04s5.64-3.32 7.68-5.88l-7.56-6.84c-2.72 3.28-6.02 4.92-9.9 4.92-2.28 0-4.31-0.5-6.09-1.5s-3.16-2.41-4.14-4.23-1.47-3.91-1.47-6.27 0.49-4.45 1.47-6.27 2.36-3.23 4.14-4.23 3.81-1.5 6.09-1.5c3.88 0 7.18 1.64 9.9 4.92l7.56-6.84c-2.04-2.56-4.6-4.52-7.68-5.88s-6.54-2.04-10.38-2.04c-4.4 0-8.35 0.93-11.85 2.79s-6.25 4.45-8.25 7.77-3 7.08-3 11.28 1 7.96 3 11.28 4.75 5.91 8.25 7.77zm81.15-40.05h-11.88v15.78h-16.2v-15.78h-11.88v42h11.88v-16.38h16.2v16.38h11.88zm42.54 33.84 3.3 8.16h12.36l-18.6-42h-11.7l-18.54 42h12.12l3.3-8.16zm-3.48-8.76h-10.8l5.4-13.44zm28.5-25.08v42h11.88v-42zm66.3 0h-11.64v22.38l-18.54-22.38h-9.78v42h11.64v-22.38l18.54 22.38h9.78z"/>
</g>
<rect x="328" y="2270.2" width="343.43" height="16.945" fill="#168349" stroke-width="8.4725" light-content="false"/>
<g class="text" transform="matrix(8.4725 0 0 8.4725 2041.1 2356.1)" fill="#168349" light-content="false">
<path d="m-137.54-7.21c-0.55-0.71-1.28-1.22-2.21-1.53 0.67-0.35 1.2-0.84 1.58-1.48 0.39-0.64 0.58-1.38 0.58-2.21 0-1.36-0.54-2.43-1.61-3.21-1.07-0.77-2.6-1.16-4.58-1.16h-7.88v16.8h8.36c2.14 0 3.77-0.4 4.89-1.19s1.68-1.91 1.68-3.37c0-1.06-0.27-1.94-0.81-2.65zm-11-7.14h4.42c1.09 0 1.92 0.19 2.51 0.59 0.58 0.39 0.87 0.97 0.87 1.74 0 0.75-0.29 1.32-0.87 1.71-0.59 0.39-1.42 0.59-2.51 0.59h-4.42zm8.67 9.48c0 1.61-1.21 2.42-3.63 2.42h-5.04v-4.85h5.04c2.42 0 3.63 0.81 3.63 2.43zm6.19-12.94v17.81h3v-17.81zm9.19 17.14c1.04 0.56 2.21 0.84 3.51 0.84 1.31 0 2.48-0.28 3.52-0.84s1.86-1.34 2.44-2.34 0.88-2.13 0.88-3.4c0-1.26-0.3-2.39-0.88-3.38s-1.4-1.77-2.44-2.33-2.21-0.84-3.52-0.84c-1.3 0-2.47 0.28-3.51 0.84s-1.85 1.34-2.43 2.33c-0.59 0.99-0.88 2.12-0.88 3.38 0 1.27 0.29 2.4 0.88 3.4 0.58 1 1.39 1.78 2.43 2.34zm6.24-2.83c-0.72 0.73-1.63 1.1-2.73 1.1-1.11 0-2.02-0.37-2.73-1.1-0.71-0.74-1.07-1.71-1.07-2.91s0.36-2.17 1.07-2.9c0.71-0.74 1.62-1.11 2.73-1.11 1.1 0 2.01 0.37 2.73 1.11 0.72 0.73 1.08 1.7 1.08 2.9s-0.36 2.17-1.08 2.91zm9.29 2.83c1.06 0.56 2.25 0.84 3.58 0.84 1.24 0 2.34-0.26 3.3-0.78 0.95-0.52 1.67-1.26 2.17-2.22l-2.31-1.35c-0.36 0.6-0.82 1.04-1.38 1.34-0.55 0.29-1.15 0.44-1.81 0.44-1.13 0-2.07-0.36-2.79-1.09-0.73-0.73-1.1-1.7-1.1-2.92 0-1.21 0.37-2.19 1.11-2.91 0.73-0.73 1.66-1.1 2.78-1.1 0.66 0 1.26 0.15 1.81 0.45 0.56 0.29 1.02 0.74 1.38 1.33l2.31-1.34c-0.48-0.96-1.2-1.7-2.15-2.21s-2.06-0.77-3.32-0.77c-1.35 0-2.54 0.28-3.59 0.84s-1.87 1.34-2.46 2.33-0.89 2.12-0.89 3.38c0 1.27 0.3 2.4 0.89 3.4s1.41 1.78 2.47 2.34zm16.75-4.83 4.44 5.5h3.65l-5.86-7.44 5.36-5.38h-3.6l-6.22 5.76v-10.75h-3v17.81h3v-3.38zm11.81 4.83c1.06 0.56 2.25 0.84 3.58 0.84 1.24 0 2.34-0.26 3.3-0.78 0.95-0.52 1.67-1.26 2.17-2.22l-2.31-1.35c-0.36 0.6-0.82 1.04-1.38 1.34-0.55 0.29-1.15 0.44-1.81 0.44-1.13 0-2.07-0.36-2.79-1.09-0.73-0.73-1.1-1.7-1.1-2.92 0-1.21 0.37-2.19 1.11-2.91 0.73-0.73 1.66-1.1 2.78-1.1 0.66 0 1.26 0.15 1.81 0.45 0.56 0.29 1.02 0.74 1.38 1.33l2.31-1.34c-0.48-0.96-1.2-1.7-2.15-2.21s-2.06-0.77-3.32-0.77c-1.35 0-2.54 0.28-3.59 0.84s-1.87 1.34-2.46 2.33-0.89 2.12-0.89 3.38c0 1.27 0.3 2.4 0.89 3.4s1.41 1.78 2.47 2.34zm22.68-10.87c-0.98-0.95-2.27-1.42-3.89-1.42-0.89 0-1.71 0.14-2.43 0.42-0.73 0.28-1.34 0.68-1.84 1.21v-6.48h-3v17.81h3v-6.48c0-1.25 0.32-2.2 0.96-2.87 0.64-0.66 1.51-0.99 2.62-0.99 0.97 0 1.72 0.28 2.25 0.85s0.79 1.41 0.79 2.53v6.96h3v-7.34c0-1.86-0.48-3.26-1.46-4.2zm14.51-0.06c-1-0.91-2.45-1.36-4.33-1.36-1.06 0-2.06 0.14-3 0.41-0.95 0.27-1.76 0.66-2.43 1.17l1.18 2.19c0.48-0.4 1.07-0.71 1.76-0.94 0.7-0.22 1.41-0.33 2.13-0.33 1.05 0 1.85 0.24 2.38 0.72 0.54 0.48 0.81 1.16 0.81 2.06v0.19h-3.31c-1.84 0-3.19 0.35-4.05 1.05-0.85 0.69-1.28 1.62-1.28 2.77 0 0.73 0.19 1.39 0.59 1.98 0.39 0.58 0.94 1.04 1.66 1.37 0.72 0.32 1.56 0.49 2.52 0.49s1.78-0.15 2.46-0.45c0.68-0.29 1.21-0.72 1.58-1.28v1.56h2.83v-7.51c0-1.83-0.5-3.19-1.5-4.09zm-2.74 9.07c-0.58 0.34-1.25 0.51-2 0.51-0.77 0-1.37-0.16-1.8-0.48s-0.65-0.75-0.65-1.29c0-1.14 0.86-1.71 2.59-1.71h3.1v1.49c-0.24 0.64-0.65 1.13-1.24 1.48zm8.08-10.29v12.82h3v-12.82zm0.14-2.62c0.37 0.34 0.83 0.51 1.37 0.51 0.56 0 1.02-0.18 1.38-0.54s0.54-0.8 0.54-1.33c0-0.5-0.18-0.91-0.55-1.24-0.37-0.32-0.83-0.49-1.37-0.49s-1 0.17-1.37 0.52c-0.37 0.34-0.55 0.77-0.55 1.28s0.18 0.94 0.55 1.29zm17.95 3.9c-0.97-0.95-2.27-1.42-3.88-1.42-0.95 0-1.8 0.15-2.55 0.46-0.75 0.3-1.37 0.75-1.87 1.34v-1.66h-2.86v12.82h3v-6.48c0-1.25 0.32-2.2 0.96-2.87 0.64-0.66 1.52-0.99 2.62-0.99 0.98 0 1.73 0.28 2.26 0.85 0.52 0.57 0.79 1.41 0.79 2.53v6.96h3v-7.34c0-1.86-0.49-3.26-1.47-4.2zm23.09 7.65 1.68 3.89h3.27l-7.59-16.8h-3.07l-7.56 16.8h3.22l1.65-3.89zm-1.03-2.45h-6.31l3.14-7.34zm8.62 6.1c0.99 0.27 2 0.41 3.04 0.41 1.8 0 3.21-0.36 4.25-1.08s1.56-1.68 1.56-2.88c0-0.91-0.23-1.62-0.71-2.11-0.47-0.5-1.03-0.85-1.69-1.06-0.65-0.21-1.49-0.39-2.52-0.55-1.02-0.18-1.78-0.37-2.27-0.57-0.48-0.2-0.73-0.54-0.73-1.02 0-0.43 0.23-0.78 0.69-1.04 0.45-0.26 1.12-0.4 2-0.4 1.36 0 2.58 0.32 3.67 0.96l1.15-2.28c-0.56-0.33-1.28-0.6-2.16-0.8s-1.76-0.3-2.64-0.3c-1.72 0-3.1 0.36-4.11 1.09-1.02 0.73-1.53 1.7-1.53 2.92 0 0.93 0.25 1.65 0.74 2.17 0.48 0.52 1.06 0.88 1.72 1.09 0.67 0.21 1.53 0.39 2.58 0.55 1.01 0.16 1.74 0.33 2.2 0.51 0.46 0.17 0.68 0.49 0.68 0.93 0 0.95-0.89 1.42-2.68 1.42-0.79 0-1.58-0.12-2.39-0.35s-1.5-0.54-2.08-0.92l-1.15 2.28c0.59 0.41 1.38 0.76 2.38 1.03zm29.25-3.65 1.68 3.89h3.27l-7.59-16.8h-3.07l-7.56 16.8h3.22l1.65-3.89zm-1.03-2.45h-6.31l3.14-7.34zm16.19 6.03c1.21 0.37 2.46 0.55 3.75 0.55 1.48 0 2.72-0.22 3.75-0.67 1.02-0.45 1.79-1.05 2.29-1.8s0.76-1.59 0.76-2.52c0-1.09-0.29-1.95-0.86-2.59-0.56-0.64-1.25-1.12-2.05-1.43s-1.82-0.61-3.07-0.9c-0.91-0.23-1.63-0.43-2.16-0.6-0.53-0.18-0.96-0.42-1.31-0.72-0.34-0.31-0.51-0.7-0.51-1.18 0-0.69 0.3-1.24 0.9-1.65 0.6-0.42 1.51-0.63 2.74-0.63 0.76 0 1.53 0.11 2.33 0.34 0.8 0.22 1.57 0.55 2.31 0.98l0.98-2.42c-0.72-0.48-1.58-0.85-2.57-1.11-0.99-0.25-2-0.38-3.02-0.38-1.47 0-2.72 0.22-3.73 0.67-1.02 0.45-1.78 1.05-2.28 1.81-0.51 0.76-0.76 1.61-0.76 2.54 0 1.1 0.28 1.98 0.85 2.62 0.57 0.65 1.25 1.13 2.04 1.43 0.79 0.31 1.83 0.61 3.11 0.91 0.91 0.23 1.63 0.43 2.16 0.6 0.53 0.18 0.96 0.42 1.31 0.74 0.34 0.31 0.51 0.7 0.51 1.18 0 0.66-0.3 1.19-0.92 1.59s-1.55 0.6-2.8 0.6c-1 0-2.01-0.17-3.01-0.52-1-0.34-1.84-0.79-2.53-1.33l-1.08 2.42c0.7 0.61 1.66 1.1 2.87 1.47zm25.35-5.14c0.04-0.38 0.05-0.68 0.05-0.89 0-1.31-0.27-2.46-0.83-3.46-0.55-1-1.32-1.78-2.3-2.33s-2.1-0.83-3.35-0.83c-1.26 0-2.4 0.28-3.41 0.84-1 0.56-1.79 1.34-2.36 2.34s-0.85 2.12-0.85 3.37c0 1.27 0.29 2.4 0.87 3.4 0.59 1 1.42 1.78 2.49 2.34s2.31 0.84 3.72 0.84c1.1 0 2.09-0.18 2.97-0.53s1.61-0.87 2.19-1.56l-1.61-1.85c-0.91 0.93-2.07 1.39-3.48 1.39-1.1 0-2.03-0.27-2.77-0.82-0.75-0.56-1.21-1.3-1.38-2.25zm-8.86-4.26c0.66-0.57 1.47-0.85 2.43-0.85 0.98 0 1.79 0.29 2.45 0.86 0.66 0.58 1.05 1.33 1.18 2.26h-7.28c0.15-0.94 0.55-1.7 1.22-2.27zm19.21-3.25c-2.18 0-3.7 0.67-4.56 2.02v-1.88h-2.86v12.82h3v-6.22c0-1.28 0.33-2.26 0.99-2.94 0.65-0.68 1.56-1.02 2.73-1.02 0.21 0 0.44 0.03 0.7 0.08zm15.02 0.14h-2.88l-4.1 9.51-3.99-9.51h-3.12l5.5 12.82h3.1zm1.87 0v12.82h3v-12.82zm0.15-2.62c0.37 0.34 0.82 0.51 1.37 0.51 0.56 0 1.02-0.18 1.38-0.54s0.54-0.8 0.54-1.33c0-0.5-0.19-0.91-0.56-1.24-0.36-0.32-0.82-0.49-1.36-0.49-0.55 0-1 0.17-1.37 0.52-0.37 0.34-0.55 0.77-0.55 1.28s0.18 0.94 0.55 1.29zm9.09 14.77c1.06 0.56 2.25 0.84 3.58 0.84 1.25 0 2.35-0.26 3.3-0.78s1.68-1.26 2.17-2.22l-2.3-1.35c-0.37 0.6-0.83 1.04-1.38 1.34-0.55 0.29-1.16 0.44-1.81 0.44-1.14 0-2.07-0.36-2.8-1.09s-1.09-1.7-1.09-2.92c0-1.21 0.37-2.19 1.1-2.91 0.74-0.73 1.67-1.1 2.79-1.1 0.65 0 1.26 0.15 1.81 0.45 0.55 0.29 1.01 0.74 1.38 1.33l2.3-1.34c-0.48-0.96-1.19-1.7-2.15-2.21-0.95-0.51-2.06-0.77-3.32-0.77-1.34 0-2.54 0.28-3.59 0.84s-1.87 1.34-2.46 2.33-0.89 2.12-0.89 3.38c0 1.27 0.3 2.4 0.89 3.4s1.42 1.78 2.47 2.34zm23.45-4.78c0.03-0.38 0.05-0.68 0.05-0.89 0-1.31-0.28-2.46-0.83-3.46s-1.32-1.78-2.3-2.33c-0.99-0.55-2.1-0.83-3.35-0.83-1.26 0-2.4 0.28-3.41 0.84s-1.79 1.34-2.36 2.34-0.85 2.12-0.85 3.37c0 1.27 0.29 2.4 0.87 3.4 0.59 1 1.41 1.78 2.49 2.34 1.07 0.56 2.31 0.84 3.72 0.84 1.1 0 2.09-0.18 2.97-0.53s1.61-0.87 2.19-1.56l-1.61-1.85c-0.91 0.93-2.07 1.39-3.48 1.39-1.11 0-2.03-0.27-2.77-0.82-0.75-0.56-1.21-1.3-1.38-2.25zm-8.87-4.26c0.67-0.57 1.48-0.85 2.44-0.85 0.98 0 1.79 0.29 2.45 0.86 0.65 0.58 1.05 1.33 1.17 2.26h-7.27c0.15-0.94 0.55-1.7 1.21-2.27zm12.71 9.47c0.99 0.27 2.01 0.41 3.05 0.41 1.79 0 3.21-0.36 4.25-1.08s1.56-1.68 1.56-2.88c0-0.91-0.24-1.62-0.71-2.11-0.47-0.5-1.04-0.85-1.69-1.06-0.66-0.21-1.5-0.39-2.52-0.55-1.03-0.18-1.78-0.37-2.27-0.57s-0.73-0.54-0.73-1.02c0-0.43 0.23-0.78 0.68-1.04 0.46-0.26 1.13-0.4 2.01-0.4 1.36 0 2.58 0.32 3.67 0.96l1.15-2.28c-0.56-0.33-1.28-0.6-2.16-0.8s-1.76-0.3-2.64-0.3c-1.73 0-3.1 0.36-4.12 1.09-1.01 0.73-1.52 1.7-1.52 2.92 0 0.93 0.24 1.65 0.73 2.17s1.07 0.88 1.73 1.09 1.52 0.39 2.58 0.55c1.01 0.16 1.74 0.33 2.2 0.51 0.45 0.17 0.68 0.49 0.68 0.93 0 0.95-0.9 1.42-2.69 1.42-0.78 0-1.58-0.12-2.39-0.35-0.8-0.23-1.5-0.54-2.07-0.92l-1.15 2.28c0.59 0.41 1.38 0.76 2.37 1.03z"/>
</g>
<rect x="3424.6" y="2270.2" width="343.43" height="16.945" fill="#168349" stroke-width="8.4725" light-content="false"/>
</g>
</g>
</svg>
