<svg viewBox="0 0 521.42 127.87" xml:space="preserve" xmlns="http://www.w3.org/2000/svg"><path d="M13.496 104.143c1.125-.492 1.93-1.169 2.418-2.032a5.544 5.544 0 0 0 .731-2.771V54.908c-1.35 0-2.775.032-4.274.093-1.5.061-3 .23-4.5.507-1.5.278-2.924.679-4.273 1.2a11.96 11.96 0 0 0-3.6 2.172l2.137-10.808h38.806l2.137 10.808a11.982 11.982 0 0 0-3.599-2.171 23.897 23.897 0 0 0-4.274-1.201 32.177 32.177 0 0 0-4.556-.507c-1.538-.06-2.98-.093-4.33-.093V99.34c0 .986.261 1.91.787 2.771.524.863 1.35 1.54 2.474 2.032zM60.06 52.877c0-.984-.244-1.924-.73-2.817-.489-.893-1.294-1.554-2.419-1.986h16.085c-1.165.432-2 1.093-2.505 1.986a5.636 5.636 0 0 0-.757 2.817V74.77h19.91V52.877c0-.984-.265-1.924-.788-2.817-.526-.893-1.35-1.554-2.474-1.986h16.084c-1.125.432-1.932 1.093-2.418 1.986a5.786 5.786 0 0 0-.731 2.817v46.464c0 .986.242 1.91.73 2.772.487.863 1.294 1.54 2.419 2.032H86.382c1.124-.493 1.948-1.17 2.474-2.032a5.253 5.253 0 0 0 .787-2.772V80.774H69.734V99.34c0 .986.252 1.91.757 2.772.505.863 1.34 1.54 2.505 2.032H56.91c1.125-.493 1.93-1.17 2.418-2.032a5.548 5.548 0 0 0 .732-2.772zM149.37 83.73l-7.198-28.82h-1.012l-7.199 28.82zm13.61 15.611c.226.986.694 1.926 1.407 2.818.712.893 1.705 1.556 2.98 1.986h-16.084c1.049-.43 1.705-1.093 1.969-1.986.262-.892.281-1.832.056-2.818l-2.475-9.607H132.5l-2.474 9.607c-.226.986-.208 1.926.056 2.818.262.893.917 1.556 1.968 1.986h-16.085c1.274-.43 2.268-1.093 2.98-1.986.713-.892 1.182-1.832 1.407-2.818l11.586-46.464c.224-.984.204-1.924-.057-2.817-.263-.893-.919-1.554-1.968-1.986h23.508c-1.051.432-1.707 1.093-1.968 1.986-.264.893-.28 1.833-.056 2.817zM184.019 52.877c0-.984-.245-1.924-.732-2.817-.488-.893-1.293-1.554-2.418-1.986h15.972c-1.124.432-1.931 1.093-2.418 1.986a5.794 5.794 0 0 0-.731 2.817v46.464c0 .986.243 1.91.731 2.772.487.863 1.294 1.54 2.418 2.032H180.87c1.125-.493 1.93-1.17 2.418-2.032a5.548 5.548 0 0 0 .732-2.772zM323.771 52.877c0-.984-.244-1.924-.73-2.817-.49-.893-1.294-1.554-2.42-1.986h16.085c-1.164.432-2 1.093-2.504 1.986a5.63 5.63 0 0 0-.758 2.817V74.77h19.91V52.877c0-.984-.264-1.924-.788-2.817-.525-.893-1.349-1.554-2.474-1.986h16.085c-1.125.432-1.932 1.093-2.419 1.986a5.793 5.793 0 0 0-.73 2.817v46.464c0 .986.242 1.91.73 2.772.487.863 1.294 1.54 2.419 2.032h-16.085c1.125-.493 1.949-1.17 2.474-2.032a5.248 5.248 0 0 0 .788-2.772V80.774h-19.91V99.34c0 .986.252 1.91.758 2.772.504.863 1.34 1.54 2.504 2.032h-16.084c1.125-.493 1.93-1.17 2.418-2.032.487-.862.731-1.786.731-2.772zM413.081 83.73l-7.198-28.82h-1.013l-7.198 28.82zm13.61 15.611c.226.986.693 1.926 1.406 2.818.712.893 1.706 1.556 2.98 1.986h-16.083c1.048-.43 1.704-1.093 1.968-1.986.262-.892.28-1.832.056-2.818l-2.475-9.607H396.21l-2.474 9.607c-.226.986-.208 1.926.056 2.818.261.893.917 1.556 1.968 1.986h-16.084c1.274-.43 2.267-1.093 2.98-1.986.711-.892 1.18-1.832 1.406-2.818l11.586-46.464c.225-.984.206-1.924-.056-2.817-.264-.893-.92-1.554-1.969-1.986h23.509c-1.052.432-1.707 1.093-1.969 1.986-.264.893-.281 1.833-.056 2.817zM447.722 52.877c0-.984-.244-1.924-.73-2.817-.49-.893-1.295-1.554-2.42-1.986h15.973c-1.124.432-1.931 1.093-2.418 1.986a5.794 5.794 0 0 0-.732 2.817v46.464c0 .986.244 1.91.732 2.772.487.863 1.294 1.54 2.418 2.032h-15.972c1.124-.493 1.93-1.17 2.419-2.032.486-.862.73-1.786.73-2.772zM508.577 52.877c0-.984-.263-1.924-.787-2.817-.526-.893-1.35-1.554-2.475-1.986H521.4c-1.125.432-1.931 1.093-2.419 1.986a5.794 5.794 0 0 0-.73 2.817v46.464c0 .986.242 1.91.73 2.772.488.863 1.294 1.54 2.42 2.032h-16.086c1.125-.493 1.95-1.17 2.475-2.032a5.247 5.247 0 0 0 .787-2.772c0-3.571-.661-6.665-1.978-9.283a28.493 28.493 0 0 0-4.978-7.02c-1.999-2.064-4.204-3.973-6.617-5.728s-4.712-3.586-6.898-5.496V99.34c0 .986.25 1.91.757 2.772.504.863 1.34 1.54 2.505 2.032h-16.086c1.125-.493 1.931-1.17 2.42-2.032.485-.862.73-1.786.73-2.772V52.877c0-.984-.245-1.924-.73-2.817-.489-.893-1.295-1.554-2.42-1.986h16.086c-1.166.432-2 1.093-2.505 1.986a5.63 5.63 0 0 0-.757 2.817c0 2.896.564 5.344 1.695 7.344 1.132 2.002 2.904 4.018 5.317 6.05a117.848 117.848 0 0 0 6.786 5.497 71.76 71.76 0 0 1 6.673 5.68z" fill="#5a4a42"/><path d="M303.446 85.324c-2.104 23.704-22.831 41.43-46.657 39.714a43.945 43.945 0 0 1-8.195-1.386 37.647 37.647 0 0 0 14.648 4.123c20.815 1.5 38.904-14.158 40.403-34.972a38.003 38.003 0 0 0-.2-7.48" fill="#c89b2c"/><path d="M290.697 99.619c-2.012 2.961-4.47 5.586-7.373 7.874-2.906 2.291-6.172 4.05-9.801 5.277-3.63 1.23-7.567 1.844-11.811 1.844-5.361 0-10.333-1.032-14.91-3.1-4.583-2.065-8.49-4.968-11.729-8.712-3.241-3.74-5.78-8.125-7.623-13.152-1.843-5.025-2.764-10.388-2.764-16.083 0-5.362.948-10.472 2.849-15.33 1.896-4.86 4.522-9.132 7.874-12.817 3.35-3.686 7.343-6.644 11.978-8.88 4.634-2.233 9.688-3.35 15.163-3.35 3.685 0 7.313.447 10.89 1.34 3.572.895 6.757 2.177 9.55 3.853 2.79 1.676 5.051 3.743 6.785 6.2 1.73 2.457 2.597 5.306 2.597 8.543 0 2.346-.866 4.386-2.597 6.116-1.734 1.733-3.77 2.597-6.115 2.597-1.9 0-3.603-.558-5.11-1.676-1.509-1.115-2.487-2.513-2.932-4.188.558-1.563.837-3.461.837-5.697 0-4.13-1.088-7.565-3.267-10.304-2.177-2.735-5.612-4.104-10.303-4.104-3.463 0-6.646.895-9.55 2.68-2.906 1.788-5.418 4.19-7.54 7.205-2.122 3.016-3.798 6.533-5.025 10.555-1.23 4.02-1.844 8.322-1.844 12.9 0 5.026.67 9.634 2.012 13.822 1.339 4.19 3.237 7.765 5.696 10.723a25.123 25.123 0 0 0 8.963 6.869c3.518 1.621 7.456 2.43 11.812 2.43 6.923 0 12.398-1.145 16.417-3.435 4.022-2.289 7.373-5.668 10.054-10.136l1.34.67a34.26 34.26 0 0 1-4.523 9.466" fill="#755321"/><path d="M301.77 10.47c-2.706-7.104-9.098-10.3-9.787-10.468 4.98 6.09-.86 14.516-12.047 12.143a49.45 49.45 0 0 0-4.925-.785c-.457.17-.93.38-1.423.647-3.654 1.973-6.017 6.106-6.017 6.106-.44-3.273.966-5.538 2.557-7.022a44.255 44.255 0 0 0-8 .69 44.397 44.397 0 0 0-11.095 3.581c-.61.517-1.19 1.085-1.699 1.734-2.56 3.27-2.74 6.98-2.74 6.98-1.275-2.24-1.09-4.341-.358-6.097a52.018 52.018 0 0 0-8.728 6.846c-15.56 15.1-18.904 32.168-16.479 47.149a47.44 47.44 0 0 1-.038-2.54c.158-10.278 5.966-24.04 13.412-32.19a52.224 52.224 0 0 1 4.207-4.114 48.002 48.002 0 0 1 4.686-3.539c6.536-4.333 14.127-6.85 21.788-7.73 3.835-.438 7.699-.554 11.528-.293.96.026 1.911.163 2.866.24.955.081 1.908.179 2.853.332l2.834.41c.9.16 1.81.246 2.72.267 1.817.034 3.65-.267 5.287-1.03 1.635-.755 3.036-2.03 3.866-3.66.845-1.624 1.107-3.53.964-5.393-.156-1.871-.697-3.706-1.435-5.451.835 1.7 1.489 3.512 1.757 5.416.256 1.895.11 3.904-.7 5.71-.79 1.808-2.257 3.315-4.012 4.248-1.755.944-3.743 1.384-5.709 1.46a19.267 19.267 0 0 1-2.948-.119l-2.808-.31a37.138 37.138 0 0 0-2.804-.235c-.938-.044-1.87-.148-2.808-.143-3.746-.133-7.49.105-11.17.647-6.413.952-12.638 3.084-18.1 6.44 6.521-2.482 14.003-3.484 22.17-2.6 6.887.744 11.21 1.404 16.05 4.616 1.89 1.44 7.472 6.08 8.503 11.392 0 0 7.468-8.85 1.412-14.99 8.18-3.974 8.537-12.66 6.37-18.344" fill="#c89b2c"/></svg>